<?xml version="1.0" encoding="UTF-8" standalone="no"?>
<!DOCTYPE svg PUBLIC "-//W3C//DTD SVG 1.1//EN" "http://www.w3.org/Graphics/SVG/1.1/DTD/svg11.dtd">
<svg version="1.1" xmlns="http://www.w3.org/2000/svg" xmlns:xlink="http://www.w3.org/1999/xlink" preserveAspectRatio="xMidYMid meet" viewBox="0 0 32 32" width="32" height="32"><defs><path d="M32 16C32 24.83 24.83 32 16 32C7.17 32 0 24.83 0 16C0 7.17 7.17 0 16 0C24.83 0 32 7.17 32 16Z" id="f1AoCPfPx0"></path><path d="M14.65 9.79L14.76 9.84L14.86 9.9L14.95 9.97L15.02 10.06L15.08 10.16L15.13 10.26L15.15 10.38L15.16 10.5L15.15 10.62L15.13 10.74L15.08 10.84L15.02 10.94L14.95 11.03L14.86 11.1L14.76 11.17L14.65 11.21L14.54 11.24L14.42 11.25L12.22 11.25L12.1 11.26L11.98 11.29L11.88 11.33L11.78 11.39L11.69 11.47L11.62 11.55L11.56 11.65L11.51 11.76L11.48 11.87L11.47 12L11.47 18.78L11.48 18.9L11.51 19.02L11.56 19.12L11.62 19.22L11.69 19.31L11.78 19.38L11.88 19.44L11.98 19.49L12.1 19.52L12.22 19.53L18.97 19.53L19.1 19.52L19.21 19.49L19.32 19.44L19.42 19.38L19.5 19.31L19.58 19.22L19.64 19.12L19.68 19.02L19.71 18.9L19.72 18.78L19.72 16.48L19.73 16.36L19.76 16.25L19.8 16.14L19.86 16.04L19.94 15.95L20.03 15.88L20.12 15.82L20.23 15.77L20.35 15.75L20.47 15.74L20.59 15.75L20.7 15.77L20.81 15.82L20.91 15.88L20.99 15.95L21.07 16.04L21.13 16.14L21.17 16.25L21.2 16.36L21.21 16.48L21.21 18.78L21.18 19.14L21.1 19.48L20.96 19.8L20.78 20.1L20.56 20.36L20.3 20.58L20.01 20.76L19.69 20.9L19.35 20.98L18.99 21.01L12.22 21.01L11.86 20.98L11.52 20.9L11.2 20.76L10.91 20.58L10.65 20.36L10.43 20.1L10.24 19.8L10.11 19.48L10.02 19.14L10 18.78L10 12L10.02 11.64L10.11 11.29L10.24 10.97L10.43 10.68L10.65 10.42L10.91 10.19L11.2 10.01L11.52 9.87L11.86 9.79L12.22 9.75L14.42 9.75L14.54 9.76L14.65 9.79ZM21.63 9.37L21.9 9.77L22 10.24L21.9 10.71L21.63 11.13L16.7 15.98L16.61 16.05L16.52 16.12L16.42 16.18L16.32 16.23L14.31 17.12L14.06 17.16L13.86 17.06L13.76 16.86L13.79 16.6L14.7 14.59L14.73 14.51L14.79 14.43L14.86 14.33L14.95 14.21L19.87 9.37L20.28 9.09L20.74 9L21.21 9.09L21.63 9.37Z" id="b1OWmIVsxC"></path></defs><g><g><g><use xlink:href="#f1AoCPfPx0" opacity="1" fill="#454545" fill-opacity="1"></use></g><g><g><filter id="shadow2589364" x="1" y="0" width="31" height="31.01" filterUnits="userSpaceOnUse" primitiveUnits="userSpaceOnUse"><feFlood></feFlood><feComposite in2="SourceAlpha" operator="in"></feComposite><feGaussianBlur stdDeviation="1"></feGaussianBlur><feOffset dx="1" dy="1" result="afterOffset"></feOffset><feFlood flood-color="#000000" flood-opacity="0.5"></feFlood><feComposite in2="afterOffset" operator="in"></feComposite><feMorphology operator="dilate" radius="1"></feMorphology><feComposite in2="SourceAlpha" operator="out"></feComposite></filter><path d="M14.65 9.79L14.76 9.84L14.86 9.9L14.95 9.97L15.02 10.06L15.08 10.16L15.13 10.26L15.15 10.38L15.16 10.5L15.15 10.62L15.13 10.74L15.08 10.84L15.02 10.94L14.95 11.03L14.86 11.1L14.76 11.17L14.65 11.21L14.54 11.24L14.42 11.25L12.22 11.25L12.1 11.26L11.98 11.29L11.88 11.33L11.78 11.39L11.69 11.47L11.62 11.55L11.56 11.65L11.51 11.76L11.48 11.87L11.47 12L11.47 18.78L11.48 18.9L11.51 19.02L11.56 19.12L11.62 19.22L11.69 19.31L11.78 19.38L11.88 19.44L11.98 19.49L12.1 19.52L12.22 19.53L18.97 19.53L19.1 19.52L19.21 19.49L19.32 19.44L19.42 19.38L19.5 19.31L19.58 19.22L19.64 19.12L19.68 19.02L19.71 18.9L19.72 18.78L19.72 16.48L19.73 16.36L19.76 16.25L19.8 16.14L19.86 16.04L19.94 15.95L20.03 15.88L20.12 15.82L20.23 15.77L20.35 15.75L20.47 15.74L20.59 15.75L20.7 15.77L20.81 15.82L20.91 15.88L20.99 15.95L21.07 16.04L21.13 16.14L21.17 16.25L21.2 16.36L21.21 16.48L21.21 18.78L21.18 19.14L21.1 19.48L20.96 19.8L20.78 20.1L20.56 20.36L20.3 20.58L20.01 20.76L19.69 20.9L19.35 20.98L18.99 21.01L12.22 21.01L11.86 20.98L11.52 20.9L11.2 20.76L10.91 20.58L10.65 20.36L10.43 20.1L10.24 19.8L10.11 19.48L10.02 19.14L10 18.78L10 12L10.02 11.64L10.11 11.29L10.24 10.97L10.43 10.68L10.65 10.42L10.91 10.19L11.2 10.01L11.52 9.87L11.86 9.79L12.22 9.75L14.42 9.75L14.54 9.76L14.65 9.79ZM21.63 9.37L21.9 9.77L22 10.24L21.9 10.71L21.63 11.13L16.7 15.98L16.61 16.05L16.52 16.12L16.42 16.18L16.32 16.23L14.31 17.12L14.06 17.16L13.86 17.06L13.76 16.86L13.79 16.6L14.7 14.59L14.73 14.51L14.79 14.43L14.86 14.33L14.95 14.21L19.87 9.37L20.28 9.09L20.74 9L21.21 9.09L21.63 9.37Z" id="b1WUIrHLQI" fill="white" fill-opacity="1" filter="url(#shadow2589364)"></path></g><use xlink:href="#b1OWmIVsxC" opacity="1" fill="#ffffff" fill-opacity="1"></use><g><use xlink:href="#b1OWmIVsxC" opacity="1" fill-opacity="0" stroke="#000000" stroke-width="1" stroke-opacity="0"></use></g><g><filter id="shadow5269722" x="1" y="0" width="31" height="31.01" filterUnits="userSpaceOnUse" primitiveUnits="userSpaceOnUse"><feFlood></feFlood><feComposite in2="SourceAlpha" operator="out"></feComposite><feGaussianBlur stdDeviation="1"></feGaussianBlur><feOffset dx="1" dy="1" result="afterOffset"></feOffset><feFlood flood-color="#000000" flood-opacity="0.5"></feFlood><feComposite in2="afterOffset" operator="in"></feComposite><feMorphology operator="dilate" radius="1"></feMorphology><feComposite in2="SourceAlpha" operator="in"></feComposite></filter><path d="M14.65 9.79L14.76 9.84L14.86 9.9L14.95 9.97L15.02 10.06L15.08 10.16L15.13 10.26L15.15 10.38L15.16 10.5L15.15 10.62L15.13 10.74L15.08 10.84L15.02 10.94L14.95 11.03L14.86 11.1L14.76 11.17L14.65 11.21L14.54 11.24L14.42 11.25L12.22 11.25L12.1 11.26L11.98 11.29L11.88 11.33L11.78 11.39L11.69 11.47L11.62 11.55L11.56 11.65L11.51 11.76L11.48 11.87L11.47 12L11.47 18.78L11.48 18.9L11.51 19.02L11.56 19.12L11.62 19.22L11.69 19.31L11.78 19.38L11.88 19.44L11.98 19.49L12.1 19.52L12.22 19.53L18.97 19.53L19.1 19.52L19.21 19.49L19.32 19.44L19.42 19.38L19.5 19.31L19.58 19.22L19.64 19.12L19.68 19.02L19.71 18.9L19.72 18.78L19.72 16.48L19.73 16.36L19.76 16.25L19.8 16.14L19.86 16.04L19.94 15.95L20.03 15.88L20.12 15.82L20.23 15.77L20.35 15.75L20.47 15.74L20.59 15.75L20.7 15.77L20.81 15.82L20.91 15.88L20.99 15.95L21.07 16.04L21.13 16.14L21.17 16.25L21.2 16.36L21.21 16.48L21.21 18.78L21.18 19.14L21.1 19.48L20.96 19.8L20.78 20.1L20.56 20.36L20.3 20.58L20.01 20.76L19.69 20.9L19.35 20.98L18.99 21.01L12.22 21.01L11.86 20.98L11.52 20.9L11.2 20.76L10.91 20.58L10.65 20.36L10.43 20.1L10.24 19.8L10.11 19.48L10.02 19.14L10 18.78L10 12L10.02 11.64L10.11 11.29L10.24 10.97L10.43 10.68L10.65 10.42L10.91 10.19L11.2 10.01L11.52 9.87L11.86 9.79L12.22 9.75L14.42 9.75L14.54 9.76L14.65 9.79ZM21.63 9.37L21.9 9.77L22 10.24L21.9 10.71L21.63 11.13L16.7 15.98L16.61 16.05L16.52 16.12L16.42 16.18L16.32 16.23L14.31 17.12L14.06 17.16L13.86 17.06L13.76 16.86L13.79 16.6L14.7 14.59L14.73 14.51L14.79 14.43L14.86 14.33L14.95 14.21L19.87 9.37L20.28 9.09L20.74 9L21.21 9.09L21.63 9.37Z" id="c55g0Ab67t" fill="white" fill-opacity="1" filter="url(#shadow5269722)"></path></g></g></g></g></svg>